<?xml version="1.0" encoding="UTF-8" standalone="no"?>
<!DOCTYPE svg PUBLIC "-//W3C//DTD SVG 1.1//EN" "http://www.w3.org/Graphics/SVG/1.1/DTD/svg11.dtd">
<svg width="100%" height="100%" viewBox="0 0 942 421" version="1.1" xmlns="http://www.w3.org/2000/svg" xmlns:xlink="http://www.w3.org/1999/xlink" xml:space="preserve" xmlns:serif="http://www.serif.com/" style="fill-rule:evenodd;clip-rule:evenodd;stroke-linejoin:round;stroke-miterlimit:2;">
    <g transform="matrix(1,0,0,1,0,-1347)">
        <g id="QHS-Logo---Outlined" serif:id="QHS Logo - Outlined" transform="matrix(0.909037,0,0,0.357837,4494.42,864.825)">
            <rect x="-4944.15" y="1347.47" width="1035.99" height="1173.87" style="fill:none;"/>
            <g transform="matrix(0.74011,0,0,1.88015,-4947.1,-5216.56)">
                <path d="M407.739,4028.12C407.739,4036.68 409.073,4044.67 411.74,4052.09C414.408,4059.51 418.277,4066.01 423.348,4071.58C428.419,4077.16 434.56,4081.51 441.77,4084.66C448.98,4087.8 457.102,4089.37 466.134,4089.37C470.941,4089.37 475.431,4088.9 479.604,4087.95C481.242,4087.52 482.391,4087.39 483.051,4087.55C483.711,4087.71 484.305,4088.39 484.834,4089.61C486.418,4092.94 488.109,4096.04 489.905,4098.92C491.701,4101.8 493.88,4104.11 496.441,4105.85C499.003,4107.6 502.133,4108.47 505.831,4108.47C509.528,4108.47 512.83,4107.65 515.735,4106.01C518.64,4104.37 521.11,4102.13 523.143,4099.28C525.177,4096.42 526.748,4093.12 527.858,4089.37C528.967,4085.62 529.548,4081.63 529.601,4077.41C529.654,4076.14 529.469,4075.35 529.046,4075.03C528.624,4074.71 527.752,4074.56 526.431,4074.56L522.549,4074.56C521.598,4074.56 521.004,4074.71 520.766,4075.03C520.528,4075.35 520.383,4075.9 520.33,4076.7C520.119,4079.34 519.498,4081.87 518.468,4084.3C517.438,4086.73 515.986,4088.71 514.111,4090.24C512.235,4091.78 509.845,4092.54 506.94,4092.54C505.25,4092.54 503.652,4091.8 502.146,4090.32C500.641,4088.84 499.149,4086.92 497.67,4084.54C496.666,4083.11 496.283,4082.18 496.521,4081.73C496.758,4081.28 497.564,4080.6 498.937,4079.71C506.913,4074.26 513.173,4067.03 517.716,4058C522.258,4048.96 524.53,4039.01 524.53,4028.12C524.53,4019.57 523.196,4011.58 520.528,4004.16C517.861,3996.74 514.005,3990.24 508.96,3984.66C503.916,3979.09 497.775,3974.73 490.538,3971.59C483.302,3968.45 475.167,3966.88 466.134,3966.88C457.102,3966.88 448.98,3968.45 441.77,3971.59C434.56,3974.73 428.419,3979.09 423.348,3984.66C418.277,3990.24 414.408,3996.74 411.74,4004.16C409.073,4011.58 407.739,4019.57 407.739,4028.12ZM450.446,4076.14C448.809,4075.19 447.858,4074.13 447.594,4072.97C446.22,4070.59 445.771,4068.01 446.247,4065.21C446.722,4062.41 447.99,4059.99 450.05,4057.96C452.11,4055.92 454.857,4054.91 458.29,4054.91C461.988,4054.91 465.065,4055.82 467.521,4057.64C469.977,4059.46 472.077,4061.84 473.82,4064.77C475.563,4067.7 477.227,4070.83 478.812,4074.16C479.393,4075.48 479.538,4076.42 479.248,4076.97C478.957,4077.53 477.914,4078.04 476.118,4078.52C474.586,4078.83 473.001,4079.1 471.364,4079.31C469.726,4079.52 467.983,4079.63 466.134,4079.63C463.124,4079.63 460.324,4079.34 457.736,4078.76C455.147,4078.17 452.718,4077.3 450.446,4076.14ZM493.312,4066.39C491.991,4068.09 491.053,4068.97 490.499,4069.05C489.944,4069.13 489.139,4068.11 488.082,4066C485.811,4061.51 483.302,4057.15 480.555,4052.93C477.808,4048.7 474.652,4045.23 471.087,4042.51C467.521,4039.79 463.361,4038.43 458.607,4038.43C454.012,4038.43 450.261,4039.53 447.356,4041.75C444.451,4043.97 442.259,4046.68 440.78,4049.87C439.301,4053.07 438.376,4056.17 438.006,4059.18C437.742,4060.82 437.439,4061.61 437.095,4061.56C436.752,4061.51 436.184,4060.64 435.392,4058.95C433.226,4054.67 431.655,4049.91 430.677,4044.68C429.7,4039.45 429.212,4033.93 429.212,4028.12C429.212,4020.99 429.911,4014.33 431.311,4008.12C432.711,4001.91 434.89,3996.44 437.848,3991.72C440.806,3986.99 444.636,3983.29 449.337,3980.62C454.038,3977.96 459.637,3976.62 466.134,3976.62C472.737,3976.62 478.376,3977.96 483.051,3980.62C487.726,3983.29 491.529,3986.99 494.461,3991.72C497.392,3996.44 499.558,4001.91 500.958,4008.12C502.358,4014.33 503.057,4020.99 503.057,4028.12C503.057,4035.68 502.318,4042.78 500.839,4049.44C499.36,4056.09 496.851,4061.75 493.312,4066.39Z" style="fill-rule:nonzero;"/>
            </g>
            <g transform="matrix(0.74011,0,0,1.88015,-4947.1,-5216.56)">
                <path d="M550.122,4063.62C550.122,4069.27 550.915,4074 552.499,4077.8C554.084,4081.61 556.778,4084.49 560.581,4086.44C564.384,4088.39 569.587,4089.37 576.19,4089.37C583.11,4089.37 588.709,4088.05 592.988,4085.41C597.266,4082.77 600.647,4079.36 603.13,4075.19C603.764,4074.19 604.265,4073.83 604.635,4074.12C605.005,4074.41 605.19,4074.87 605.19,4075.51L605.19,4084.46C605.19,4085.73 605.348,4086.56 605.665,4086.96C605.982,4087.35 606.748,4087.55 607.963,4087.55L633.714,4087.55C634.77,4087.55 635.404,4087.37 635.616,4086.99C635.827,4086.63 635.932,4085.91 635.932,4084.86L635.932,4079.71C635.932,4078.86 635.695,4078.32 635.219,4078.08C634.744,4077.84 634.11,4077.72 633.318,4077.72L624.523,4077.72C623.255,4077.72 622.463,4077.57 622.146,4077.25C621.829,4076.93 621.67,4076.17 621.67,4074.95L621.67,4007.6C621.67,4006.65 621.565,4006.01 621.353,4005.66C621.142,4005.32 620.588,4005.15 619.69,4005.15L592.988,4005.15C592.09,4005.15 591.522,4005.32 591.284,4005.66C591.047,4006.01 590.928,4006.63 590.928,4007.52L590.928,4013.31C590.928,4014.05 591.126,4014.51 591.522,4014.7C591.918,4014.88 592.512,4014.97 593.305,4014.97L601.545,4014.97C602.707,4014.97 603.539,4015.12 604.041,4015.41C604.543,4015.7 604.794,4016.48 604.794,4017.74L604.794,4049.99C604.794,4055.43 603.79,4060.47 601.783,4065.09C599.775,4069.71 596.989,4073.41 593.424,4076.18C589.858,4078.95 585.698,4080.34 580.944,4080.34C576.137,4080.34 572.611,4078.65 570.366,4075.27C568.122,4071.89 566.999,4067.4 566.999,4061.8L566.999,4007.68C566.999,4006.52 566.801,4005.81 566.405,4005.54C566.009,4005.28 565.203,4005.15 563.988,4005.15L538.713,4005.15C537.498,4005.15 536.719,4005.33 536.375,4005.7C536.032,4006.07 535.86,4006.86 535.86,4008.08L535.86,4012.67C535.86,4013.73 536.071,4014.38 536.494,4014.62C536.917,4014.85 537.656,4014.97 538.713,4014.97L547.904,4014.97C548.855,4014.97 549.462,4015.16 549.726,4015.53C549.99,4015.9 550.122,4016.61 550.122,4017.67L550.122,4063.62Z" style="fill-rule:nonzero;"/>
            </g>
            <g transform="matrix(0.74011,0,0,1.88015,-4947.1,-5216.56)">
                <path d="M644.569,4047.93C644.569,4055.33 646.035,4062.17 648.966,4068.45C651.898,4074.74 656.216,4079.8 661.921,4083.63C667.626,4087.46 674.651,4089.37 682.997,4089.37C689.706,4089.37 695.477,4088.24 700.31,4085.97C705.143,4083.69 709.105,4080.5 712.195,4076.38C715.285,4072.26 717.596,4067.43 719.128,4061.88C719.286,4061.24 719.247,4060.8 719.009,4060.53C718.771,4060.27 718.256,4060.14 717.464,4060.14L711.125,4060.14C710.333,4060.14 709.818,4060.31 709.58,4060.65C709.343,4060.99 709.118,4061.46 708.907,4062.04C706.794,4067.64 703.783,4072.1 699.874,4075.43C695.965,4078.76 691.026,4080.42 685.057,4080.42C679.881,4080.42 675.695,4078.98 672.499,4076.1C669.303,4073.22 666.979,4069.41 665.526,4064.65C664.074,4059.9 663.321,4054.77 663.268,4049.28C663.268,4048.38 663.466,4047.78 663.862,4047.46C664.259,4047.14 664.906,4046.98 665.804,4046.98L716.751,4046.98C717.913,4046.98 718.679,4046.85 719.049,4046.59C719.418,4046.32 719.603,4045.66 719.603,4044.61C719.603,4040.86 719.247,4037.05 718.534,4033.2C717.821,4029.34 716.645,4025.63 715.008,4022.06C713.37,4018.5 711.191,4015.3 708.471,4012.48C705.751,4009.65 702.383,4007.42 698.369,4005.78C694.354,4004.14 689.6,4003.33 684.107,4003.33C675.285,4003.33 667.956,4005.29 662.119,4009.23C656.282,4013.16 651.898,4018.49 648.966,4025.19C646.035,4031.9 644.569,4039.48 644.569,4047.93ZM665.804,4038.82C664.8,4038.82 664.179,4038.68 663.942,4038.39C663.704,4038.1 663.611,4037.53 663.664,4036.68C663.717,4032.72 664.483,4028.81 665.962,4024.95C667.441,4021.1 669.673,4017.9 672.657,4015.37C675.642,4012.83 679.405,4011.57 683.948,4011.57C686.959,4011.57 689.547,4012.41 691.713,4014.1C693.879,4015.79 695.675,4017.97 697.101,4020.64C698.527,4023.31 699.597,4026.13 700.31,4029.12C701.023,4032.1 701.38,4034.86 701.38,4037.39C701.38,4038.03 701.274,4038.43 701.063,4038.58C700.851,4038.74 700.217,4038.82 699.161,4038.82L665.804,4038.82Z" style="fill-rule:nonzero;"/>
            </g>
            <g transform="matrix(0.74011,0,0,1.88015,-4947.1,-5216.56)">
                <path d="M742.343,4014.97C743.136,4014.97 743.69,4015.06 744.007,4015.25C744.324,4015.43 744.483,4015.9 744.483,4016.64L744.483,4075.35C744.483,4076.46 744.298,4077.13 743.928,4077.37C743.558,4077.61 742.792,4077.72 741.63,4077.72L733.152,4077.72C732.096,4077.72 731.343,4077.88 730.894,4078.2C730.445,4078.52 730.221,4079.23 730.221,4080.34L730.221,4084.93C730.221,4085.94 730.353,4086.63 730.617,4086.99C730.881,4087.37 731.515,4087.55 732.518,4087.55L772.373,4087.55C773.324,4087.55 773.971,4087.39 774.314,4087.08C774.658,4086.76 774.829,4086.1 774.829,4085.09L774.829,4080.42C774.829,4079.26 774.631,4078.52 774.235,4078.2C773.839,4077.88 773.086,4077.72 771.977,4077.72L764.687,4077.72C763.472,4077.72 762.627,4077.49 762.152,4077.01C761.676,4076.54 761.439,4075.69 761.439,4074.48L761.439,4042.7C761.439,4037.26 762.429,4032.35 764.41,4027.97C766.391,4023.58 769.177,4020.11 772.769,4017.55C776.361,4014.99 780.534,4013.7 785.288,4013.7C790.095,4013.7 793.608,4015.17 795.826,4018.1C798.045,4021.03 799.154,4025.3 799.154,4030.9L799.154,4074.64C799.154,4076.01 798.956,4076.87 798.56,4077.21C798.164,4077.55 797.305,4077.72 795.985,4077.72L787.903,4077.72C787.005,4077.72 786.437,4077.91 786.199,4078.28C785.962,4078.65 785.843,4079.28 785.843,4080.18L785.843,4084.93C785.843,4085.89 785.935,4086.56 786.12,4086.96C786.305,4087.35 786.846,4087.55 787.744,4087.55L827.599,4087.55C828.655,4087.55 829.382,4087.46 829.778,4087.27C830.174,4087.09 830.372,4086.49 830.372,4085.49L830.372,4080.18C830.372,4079.23 830.24,4078.58 829.976,4078.24C829.712,4077.9 829.131,4077.72 828.233,4077.72L819.121,4077.72C817.695,4077.72 816.836,4077.49 816.546,4077.01C816.255,4076.54 816.11,4075.59 816.11,4074.16L816.11,4029.08C816.11,4023.42 815.318,4018.7 813.733,4014.89C812.148,4011.09 809.454,4008.21 805.651,4006.26C801.848,4004.3 796.645,4003.33 790.042,4003.33C783.175,4003.33 777.563,4004.74 773.205,4007.56C768.847,4010.39 765.374,4013.86 762.786,4017.98C762.205,4018.88 761.769,4019.36 761.478,4019.41C761.188,4019.46 761.043,4018.49 761.043,4016.48L761.043,4008.08C761.043,4007.23 760.818,4006.53 760.369,4005.98C759.92,4005.42 759.22,4005.15 758.269,4005.15L732.281,4005.15C731.541,4005.15 731.013,4005.31 730.696,4005.62C730.379,4005.94 730.221,4006.49 730.221,4007.29L730.221,4012.67C730.221,4013.52 730.353,4014.11 730.617,4014.46C730.881,4014.8 731.436,4014.97 732.281,4014.97L742.343,4014.97Z" style="fill-rule:nonzero;"/>
            </g>
            <g transform="matrix(0.74011,0,0,1.88015,-4947.1,-5216.56)">
                <path d="M888.847,4072.18C889.164,4071.49 889.19,4070.99 888.926,4070.67C888.662,4070.36 888.186,4070.07 887.5,4069.8L884.41,4068.45C883.512,4068.14 882.917,4068.06 882.627,4068.22C882.336,4068.38 881.98,4068.85 881.557,4069.64C880.184,4072.55 878.625,4074.74 876.882,4076.22C875.139,4077.7 873.185,4078.44 871.019,4078.44C868.959,4078.44 867.308,4077.74 866.067,4076.34C864.826,4074.94 864.205,4072.68 864.205,4069.56L864.205,4017.59C864.205,4016.43 864.469,4015.7 864.997,4015.41C865.525,4015.12 866.318,4014.97 867.374,4014.97L884.489,4014.97C885.44,4014.97 886.113,4014.87 886.509,4014.66C886.905,4014.44 887.103,4013.89 887.103,4012.99L887.103,4007.68C887.103,4006.63 886.932,4005.94 886.588,4005.62C886.245,4005.31 885.572,4005.15 884.568,4005.15L867.216,4005.15C866.212,4005.15 865.459,4005 864.958,4004.71C864.456,4004.42 864.205,4003.72 864.205,4002.61L864.205,3984.39C864.205,3982.86 863.492,3982.09 862.066,3982.09L857.232,3982.09C856.017,3982.09 855.291,3982.25 855.053,3982.57C854.816,3982.88 854.591,3983.52 854.38,3984.47C853.271,3989.22 852.175,3993 851.092,3995.8C850.009,3998.6 848.768,4000.66 847.368,4001.98C845.968,4003.3 844.278,4004.16 842.297,4004.55C840.316,4004.95 837.873,4005.15 834.968,4005.15C833.964,4005.15 833.317,4005.25 833.026,4005.46C832.736,4005.68 832.591,4006.31 832.591,4007.37L832.591,4012.6C832.591,4013.65 832.762,4014.31 833.106,4014.58C833.449,4014.84 834.175,4014.97 835.285,4014.97L844.793,4014.97C845.796,4014.97 846.47,4015.18 846.813,4015.61C847.156,4016.03 847.328,4016.74 847.328,4017.74L847.328,4072.81C847.328,4077.72 848.702,4081.74 851.448,4084.86C854.195,4087.97 858.659,4089.53 864.839,4089.53C869.276,4089.53 873.066,4088.74 876.209,4087.15C879.352,4085.57 881.94,4083.46 883.974,4080.82C886.007,4078.17 887.632,4075.3 888.847,4072.18Z" style="fill-rule:nonzero;"/>
            </g>
            <g transform="matrix(0.74011,0,0,1.88015,-4947.1,-5216.56)">
                <path d="M908.1,3976.86C908.1,3979.82 909.17,3982.3 911.309,3984.31C913.449,3986.32 915.997,3987.32 918.955,3987.32C921.914,3987.32 924.449,3986.32 926.562,3984.31C928.675,3982.3 929.731,3979.82 929.731,3976.86C929.731,3973.85 928.675,3971.34 926.562,3969.33C924.449,3967.33 921.914,3966.32 918.955,3966.32C915.997,3966.32 913.449,3967.33 911.309,3969.33C909.17,3971.34 908.1,3973.85 908.1,3976.86ZM909.368,4014.97C910.636,4014.97 911.27,4015.61 911.27,4016.87L911.27,4075.59C911.27,4076.43 911.177,4077 910.992,4077.29C910.808,4077.58 910.266,4077.72 909.368,4077.72L899.543,4077.72C898.592,4077.72 897.932,4077.86 897.562,4078.12C897.193,4078.39 897.008,4079.05 897.008,4080.1L897.008,4085.65C897.008,4086.49 897.179,4087.02 897.523,4087.23C897.866,4087.44 898.487,4087.55 899.385,4087.55L940.745,4087.55C941.537,4087.55 942.012,4087.42 942.171,4087.15C942.329,4086.89 942.409,4086.36 942.409,4085.57L942.409,4079.39C942.409,4078.6 942.277,4078.12 942.012,4077.96C941.748,4077.8 941.247,4077.72 940.507,4077.72L929.81,4077.72C929.177,4077.72 928.741,4077.58 928.503,4077.29C928.265,4077 928.147,4076.51 928.147,4075.82L928.147,4006.81C928.147,4006.12 928.054,4005.68 927.869,4005.46C927.684,4005.25 927.275,4005.15 926.641,4005.15L898.989,4005.15C897.668,4005.15 897.008,4005.83 897.008,4007.21L897.008,4013.15C897.008,4013.89 897.1,4014.38 897.285,4014.62C897.47,4014.85 897.932,4014.97 898.672,4014.97L909.368,4014.97Z" style="fill-rule:nonzero;"/>
            </g>
            <g transform="matrix(0.74011,0,0,1.88015,-4947.1,-5216.56)">
                <path d="M963.643,4014.97C964.436,4014.97 964.99,4015.06 965.307,4015.25C965.624,4015.43 965.783,4015.9 965.783,4016.64L965.783,4075.35C965.783,4076.46 965.598,4077.13 965.228,4077.37C964.858,4077.61 964.092,4077.72 962.93,4077.72L954.452,4077.72C953.396,4077.72 952.643,4077.88 952.194,4078.2C951.745,4078.52 951.521,4079.23 951.521,4080.34L951.521,4084.93C951.521,4085.94 951.653,4086.63 951.917,4086.99C952.181,4087.37 952.815,4087.55 953.818,4087.55L993.673,4087.55C994.624,4087.55 995.271,4087.39 995.614,4087.08C995.957,4086.76 996.129,4086.1 996.129,4085.09L996.129,4080.42C996.129,4079.26 995.931,4078.52 995.535,4078.2C995.139,4077.88 994.386,4077.72 993.277,4077.72L985.987,4077.72C984.772,4077.72 983.927,4077.49 983.452,4077.01C982.976,4076.54 982.739,4075.69 982.739,4074.48L982.739,4042.7C982.739,4037.26 983.729,4032.35 985.71,4027.97C987.691,4023.58 990.477,4020.11 994.069,4017.55C997.661,4014.99 1001.83,4013.7 1006.59,4013.7C1011.39,4013.7 1014.91,4015.17 1017.13,4018.1C1019.35,4021.03 1020.45,4025.3 1020.45,4030.9L1020.45,4074.64C1020.45,4076.01 1020.26,4076.87 1019.86,4077.21C1019.46,4077.55 1018.61,4077.72 1017.28,4077.72L1009.2,4077.72C1008.31,4077.72 1007.74,4077.91 1007.5,4078.28C1007.26,4078.65 1007.14,4079.28 1007.14,4080.18L1007.14,4084.93C1007.14,4085.89 1007.24,4086.56 1007.42,4086.96C1007.61,4087.35 1008.15,4087.55 1009.04,4087.55L1048.9,4087.55C1049.95,4087.55 1050.68,4087.46 1051.08,4087.27C1051.47,4087.09 1051.67,4086.49 1051.67,4085.49L1051.67,4080.18C1051.67,4079.23 1051.54,4078.58 1051.28,4078.24C1051.01,4077.9 1050.43,4077.72 1049.53,4077.72L1040.42,4077.72C1039,4077.72 1038.14,4077.49 1037.85,4077.01C1037.56,4076.54 1037.41,4075.59 1037.41,4074.16L1037.41,4029.08C1037.41,4023.42 1036.62,4018.7 1035.03,4014.89C1033.45,4011.09 1030.75,4008.21 1026.95,4006.26C1023.15,4004.3 1017.95,4003.33 1011.34,4003.33C1004.48,4003.33 998.863,4004.74 994.505,4007.56C990.147,4010.39 986.674,4013.86 984.086,4017.98C983.505,4018.88 983.069,4019.36 982.778,4019.41C982.488,4019.46 982.342,4018.49 982.342,4016.48L982.342,4008.08C982.342,4007.23 982.118,4006.53 981.669,4005.98C981.22,4005.42 980.52,4005.15 979.569,4005.15L953.581,4005.15C952.841,4005.15 952.313,4005.31 951.996,4005.62C951.679,4005.94 951.521,4006.49 951.521,4007.29L951.521,4012.67C951.521,4013.52 951.653,4014.11 951.917,4014.46C952.181,4014.8 952.735,4014.97 953.581,4014.97L963.643,4014.97Z" style="fill-rule:nonzero;"/>
            </g>
            <g transform="matrix(0.74011,0,0,1.88015,-4947.1,-5216.56)">
                <path d="M1143.19,3982.57C1143.19,3981.14 1143.37,3980.22 1143.74,3979.79C1144.11,3979.37 1144.96,3979.16 1146.28,3979.16L1158.72,3979.16C1159.99,3979.16 1160.8,3978.97 1161.17,3978.6C1161.54,3978.23 1161.73,3977.39 1161.73,3976.07L1161.73,3971.63C1161.73,3970.31 1161.44,3969.49 1160.86,3969.18C1160.28,3968.86 1159.38,3968.7 1158.16,3968.7L1111.1,3968.7C1109.83,3968.7 1108.92,3968.9 1108.36,3969.29C1107.81,3969.69 1107.53,3970.58 1107.53,3971.95L1107.53,3975.36C1107.53,3976.89 1107.7,3977.9 1108.05,3978.41C1108.39,3978.91 1109.28,3979.16 1110.7,3979.16L1121.71,3979.16C1123.04,3979.16 1123.91,3979.36 1124.33,3979.75C1124.75,3980.15 1124.96,3981.01 1124.96,3982.33L1124.96,4074.16C1124.96,4075.53 1124.73,4076.37 1124.25,4076.66C1123.78,4076.95 1122.85,4077.09 1121.48,4077.09L1110.86,4077.09C1109.43,4077.09 1108.52,4077.32 1108.13,4077.76C1107.73,4078.21 1107.53,4079.18 1107.53,4080.66L1107.53,4084.06C1107.53,4085.6 1107.76,4086.56 1108.2,4086.96C1108.65,4087.35 1109.62,4087.55 1111.1,4087.55L1157.45,4087.55C1159.25,4087.55 1160.41,4087.33 1160.93,4086.88C1161.46,4086.43 1161.73,4085.28 1161.73,4083.43L1161.73,4079.86C1161.73,4078.65 1161.54,4077.88 1161.17,4077.57C1160.8,4077.25 1160.04,4077.09 1158.88,4077.09L1146.28,4077.09C1144.9,4077.09 1144.05,4076.84 1143.7,4076.34C1143.36,4075.84 1143.19,4074.95 1143.19,4073.68L1143.19,4034.7C1143.19,4033.17 1143.41,4032.22 1143.86,4031.85C1144.31,4031.48 1145.33,4031.29 1146.91,4031.29L1199.76,4031.29C1201.35,4031.29 1202.39,4031.51 1202.89,4031.93C1203.39,4032.35 1203.64,4033.41 1203.64,4035.1L1203.64,4073.13C1203.64,4074.66 1203.44,4075.7 1203.05,4076.26C1202.65,4076.81 1201.66,4077.09 1200.08,4077.09L1187.64,4077.09C1186.53,4077.09 1185.83,4077.29 1185.54,4077.68C1185.25,4078.08 1185.1,4078.86 1185.1,4080.02L1185.1,4083.75C1185.1,4085.38 1185.31,4086.43 1185.74,4086.88C1186.16,4087.33 1187.16,4087.55 1188.75,4087.55L1234.94,4087.55C1236.68,4087.55 1237.85,4087.35 1238.43,4086.96C1239.01,4086.56 1239.3,4085.46 1239.3,4083.67L1239.3,4079.86C1239.3,4078.6 1239.05,4077.82 1238.55,4077.53C1238.04,4077.24 1237.21,4077.09 1236.05,4077.09L1224.8,4077.09C1223.58,4077.09 1222.79,4076.89 1222.42,4076.5C1222.05,4076.1 1221.87,4075.32 1221.87,4074.16L1221.87,3982.88C1221.87,3981.19 1222.13,3980.15 1222.66,3979.75C1223.19,3979.36 1224.32,3979.16 1226.07,3979.16L1236.05,3979.16C1237.32,3979.16 1238.17,3978.99 1238.62,3978.64C1239.07,3978.3 1239.3,3977.52 1239.3,3976.31L1239.3,3971.87C1239.3,3970.44 1239.05,3969.56 1238.55,3969.21C1238.04,3968.87 1237.16,3968.7 1235.89,3968.7L1188.51,3968.7C1187.03,3968.7 1186.09,3968.91 1185.7,3969.33C1185.3,3969.76 1185.1,3970.73 1185.1,3972.26L1185.1,3975.99C1185.1,3977.1 1185.29,3977.9 1185.66,3978.41C1186.03,3978.91 1186.82,3979.16 1188.03,3979.16L1200.24,3979.16C1201.87,3979.16 1202.85,3979.41 1203.17,3979.91C1203.48,3980.41 1203.64,3981.48 1203.64,3983.12L1203.64,4015.92C1203.64,4018.04 1203.46,4019.41 1203.09,4020.04C1202.72,4020.68 1201.5,4020.99 1199.44,4020.99L1147.7,4020.99C1145.64,4020.99 1144.38,4020.74 1143.9,4020.24C1143.42,4019.74 1143.19,4018.49 1143.19,4016.48L1143.19,3982.57Z" style="fill-rule:nonzero;"/>
            </g>
            <g transform="matrix(0.74011,0,0,1.88015,-4947.1,-5216.56)">
                <path d="M1253.64,4078.52C1253.64,4080.53 1254.14,4082.35 1255.14,4083.99C1256.15,4085.62 1257.45,4086.93 1259.07,4087.91C1260.68,4088.88 1262.49,4089.37 1264.49,4089.37C1266.45,4089.37 1268.26,4088.88 1269.92,4087.91C1271.59,4086.93 1272.91,4085.62 1273.88,4083.99C1274.86,4082.35 1275.35,4080.53 1275.35,4078.52C1275.35,4076.51 1274.86,4074.7 1273.88,4073.09C1272.91,4071.48 1271.59,4070.17 1269.92,4069.17C1268.26,4068.16 1266.45,4067.66 1264.49,4067.66C1262.49,4067.66 1260.68,4068.16 1259.07,4069.17C1257.45,4070.17 1256.15,4071.48 1255.14,4073.09C1254.14,4074.7 1253.64,4076.51 1253.64,4078.52Z" style="fill-rule:nonzero;"/>
            </g>
            <g transform="matrix(0.74011,0,0,1.88015,-4947.1,-5216.56)">
                <path d="M1370.27,4004.91C1370.43,4006.34 1370.58,4007.23 1370.71,4007.6C1370.84,4007.97 1371.7,4008.16 1373.28,4008.16L1377.48,4008.16C1378.64,4008.16 1379.44,4008.05 1379.86,4007.84C1380.28,4007.63 1380.49,4006.94 1380.49,4005.78L1380.49,3971.47C1380.49,3970.36 1380.35,3969.62 1380.06,3969.25C1379.77,3968.88 1379.09,3968.7 1378.04,3968.7L1371.93,3968.7C1371.19,3968.7 1370.73,3968.76 1370.55,3968.9C1370.36,3969.03 1370.14,3969.33 1369.88,3969.81L1367.5,3975.12C1366.81,3976.6 1366.14,3977.32 1365.48,3977.3C1364.82,3977.27 1364.01,3976.83 1363.06,3975.99C1359.84,3973.24 1355.98,3971.06 1351.49,3969.45C1347,3967.84 1342.2,3967.04 1337.07,3967.04C1331.89,3967.04 1326.97,3967.68 1322.3,3968.98C1317.62,3970.27 1313.47,3972.29 1309.86,3975.04C1306.24,3977.79 1303.4,3981.23 1301.34,3985.38C1299.28,3989.53 1298.25,3994.45 1298.25,4000.16C1298.25,4006.55 1299.5,4011.72 1302.01,4015.68C1304.52,4019.65 1307.84,4022.82 1311.95,4025.19C1316.08,4027.57 1320.62,4029.47 1325.58,4030.9C1330.55,4032.32 1335.51,4033.66 1340.48,4034.9C1345.44,4036.14 1350,4037.65 1354.15,4039.42C1358.29,4041.18 1361.61,4043.52 1364.09,4046.43C1366.57,4049.33 1367.82,4053.27 1367.82,4058.23C1367.82,4061.72 1366.84,4065.15 1364.88,4068.53C1362.93,4071.91 1359.84,4074.7 1355.61,4076.89C1351.39,4079.09 1345.87,4080.18 1339.05,4080.18C1332.03,4080.18 1325.99,4078.62 1320.95,4075.51C1315.9,4072.39 1311.94,4068.45 1309.06,4063.7C1306.18,4058.95 1304.51,4054.09 1304.03,4049.12C1303.98,4048.12 1303.82,4047.39 1303.56,4046.94C1303.29,4046.49 1302.55,4046.27 1301.34,4046.27L1296.9,4046.27C1295.69,4046.27 1294.87,4046.39 1294.44,4046.63C1294.02,4046.86 1293.81,4047.56 1293.81,4048.72L1293.81,4085.49C1293.81,4086.7 1294.02,4087.48 1294.44,4087.83C1294.87,4088.17 1295.71,4088.34 1296.98,4088.34L1300.47,4088.34C1302,4088.34 1302.99,4088.24 1303.44,4088.03C1303.89,4087.81 1304.35,4087.18 1304.82,4086.12L1307.12,4080.5C1307.81,4078.86 1308.4,4077.95 1308.9,4077.76C1309.41,4077.58 1310.27,4078.04 1311.48,4079.15C1315.02,4082.27 1319.35,4084.86 1324.47,4086.92C1329.6,4088.98 1335.22,4090.01 1341.35,4090.01C1350.44,4090.01 1358.25,4088.62 1364.8,4085.85C1371.35,4083.07 1376.37,4078.98 1379.86,4073.57C1383.35,4068.15 1385.09,4061.56 1385.09,4053.8C1385.09,4047.04 1383.83,4041.51 1381.32,4037.24C1378.82,4032.96 1375.49,4029.53 1371.34,4026.94C1367.19,4024.35 1362.64,4022.26 1357.67,4020.68C1352.71,4019.09 1347.74,4017.67 1342.78,4016.4C1337.81,4015.13 1333.26,4013.7 1329.11,4012.12C1324.96,4010.54 1321.63,4008.4 1319.13,4005.7C1316.62,4003.01 1315.36,3999.44 1315.36,3995.01C1315.36,3989.88 1317.22,3985.58 1320.95,3982.09C1324.67,3978.6 1330.87,3976.86 1339.53,3976.86C1344.97,3976.86 1349.92,3978.02 1354.38,3980.35C1358.85,3982.67 1362.49,3985.93 1365.32,3990.13C1368.14,3994.33 1369.8,3999.26 1370.27,4004.91Z" style="fill-rule:nonzero;"/>
            </g>
            <g transform="matrix(2.58398,0,0,6.56426,-5389.36,-8984.77)">
                <path d="M202.525,1650.37C202.525,1645.04 203.265,1639.49 204.744,1633.73C206.223,1627.97 208.362,1622.41 211.162,1617.05C213.961,1611.69 217.316,1606.87 221.225,1602.59C225.133,1598.31 229.531,1594.91 234.417,1592.37C239.303,1589.84 244.572,1588.57 250.224,1588.57C257.038,1588.57 262.36,1590.17 266.19,1593.36C270.019,1596.56 272.726,1601 274.311,1606.67C275.896,1612.35 276.688,1618.89 276.688,1626.28C276.688,1631.62 275.962,1637.16 274.509,1642.92C273.057,1648.68 270.957,1654.24 268.21,1659.6C265.463,1664.96 262.136,1669.78 258.227,1674.06C254.318,1678.34 249.907,1681.75 244.995,1684.28C240.082,1686.82 234.747,1688.09 228.989,1688.09C222.175,1688.09 216.853,1686.49 213.024,1683.29C209.194,1680.1 206.487,1675.66 204.902,1669.98C203.318,1664.3 202.525,1657.77 202.525,1650.37ZM180.815,1723.27C180.815,1726.75 182.004,1729.61 184.381,1731.82C186.758,1734.04 189.742,1735.15 193.334,1735.15C196.451,1735.15 199.25,1734.27 201.733,1732.5C204.216,1730.73 205.457,1728.15 205.457,1724.77C205.457,1722.71 205.087,1721.19 204.348,1720.22C203.608,1719.24 202.869,1718.39 202.129,1717.68C201.39,1716.97 201.02,1716.06 201.02,1714.95C201.02,1713.84 201.429,1712.9 202.248,1712.13C203.067,1711.37 204.453,1710.99 206.408,1710.99C208.89,1710.99 211.069,1711.87 212.945,1713.64C214.82,1715.41 216.695,1717.6 218.57,1720.22C220.445,1722.83 222.651,1725.44 225.186,1728.06C227.722,1730.67 230.838,1732.88 234.536,1734.68C238.233,1736.47 242.882,1737.37 248.481,1737.37C250.964,1737.37 253.552,1737.12 256.246,1736.62C258.94,1736.12 261.528,1735.35 264.011,1734.32C266.493,1733.29 268.725,1731.92 270.706,1730.2C272.687,1728.48 274.258,1726.4 275.42,1723.94C276.583,1721.48 277.164,1718.62 277.164,1715.34C277.164,1713.23 276.635,1711.34 275.579,1709.68C274.522,1708.01 273.083,1706.69 271.261,1705.72C269.438,1704.74 267.391,1704.25 265.12,1704.25C263.218,1704.25 261.317,1704.63 259.415,1705.4C257.514,1706.16 255.929,1707.33 254.661,1708.88C253.393,1710.44 252.76,1712.36 252.76,1714.63C252.76,1716.69 253.116,1718.15 253.829,1719.03C254.542,1719.9 255.269,1720.65 256.008,1721.29C256.748,1721.92 257.117,1722.87 257.117,1724.14C257.117,1725.19 256.734,1726.17 255.969,1727.07C255.203,1727.97 253.79,1728.42 251.73,1728.42C249.881,1728.42 248.085,1727.53 246.342,1725.76C244.598,1723.99 242.723,1721.8 240.716,1719.18C238.709,1716.57 236.345,1713.96 233.625,1711.34C230.904,1708.73 227.656,1706.52 223.879,1704.73C220.102,1702.93 215.573,1702.03 210.29,1702.03C207.808,1702.03 205.193,1702.3 202.446,1702.82C199.699,1703.35 197.045,1704.16 194.483,1705.24C191.921,1706.32 189.61,1707.71 187.55,1709.4C185.49,1711.09 183.853,1713.08 182.638,1715.38C181.423,1717.68 180.815,1720.31 180.815,1723.27ZM177.646,1650.21C177.646,1660.88 179.693,1669.9 183.787,1677.27C187.88,1684.64 193.73,1690.24 201.337,1694.07C208.943,1697.9 218.002,1699.81 228.514,1699.81C238.709,1699.81 248.23,1697.83 257.078,1693.87C265.926,1689.91 273.677,1684.51 280.333,1677.67C286.989,1670.83 292.192,1663.01 295.942,1654.21C299.692,1645.42 301.568,1636.16 301.568,1626.44C301.568,1615.77 299.521,1606.75 295.427,1599.38C291.333,1592.02 285.483,1586.42 277.877,1582.59C270.27,1578.76 261.211,1576.84 250.699,1576.84C240.505,1576.84 230.983,1578.82 222.136,1582.78C213.288,1586.75 205.523,1592.15 198.841,1598.99C192.159,1605.83 186.956,1613.65 183.232,1622.44C179.508,1631.24 177.646,1640.49 177.646,1650.21Z" style="fill-rule:nonzero;"/>
            </g>
            <g transform="matrix(2.58398,0,0,6.56426,-5389.36,-8984.77)">
                <path d="M295.07,1694.27C295.07,1695.75 295.282,1696.7 295.704,1697.12C296.127,1697.54 297.13,1697.75 298.715,1697.75L351.326,1697.75C352.7,1697.75 353.598,1697.57 354.02,1697.2C354.443,1696.83 354.654,1695.93 354.654,1694.5L354.654,1688.88C354.654,1687.35 354.483,1686.36 354.139,1685.91C353.796,1685.46 352.885,1685.23 351.406,1685.23L340.788,1685.23C339.151,1685.23 338.213,1685 337.975,1684.52C337.738,1684.05 337.751,1683.17 338.015,1681.91L345.701,1646.25C346.018,1644.72 346.308,1643.68 346.572,1643.12C346.836,1642.57 347.919,1642.29 349.821,1642.29L398.154,1642.29C400.161,1642.29 401.349,1642.51 401.719,1642.96C402.089,1643.41 402.089,1644.43 401.719,1646.01L394.033,1681.83C393.716,1683.36 393.386,1684.31 393.043,1684.68C392.7,1685.05 391.577,1685.23 389.676,1685.23L378.662,1685.23C377.394,1685.23 376.51,1685.38 376.008,1685.67C375.506,1685.96 375.255,1686.82 375.255,1688.25L375.255,1694.58C375.255,1695.96 375.479,1696.83 375.928,1697.2C376.377,1697.57 377.262,1697.75 378.583,1697.75L431.115,1697.75C432.383,1697.75 433.201,1697.57 433.571,1697.2C433.941,1696.83 434.126,1696.01 434.126,1694.74L434.126,1688.48C434.126,1687.11 433.954,1686.22 433.611,1685.83C433.267,1685.43 432.409,1685.23 431.036,1685.23L420.181,1685.23C418.068,1685.23 416.853,1685.01 416.536,1684.56C416.219,1684.11 416.245,1683.07 416.615,1681.43L435.076,1594.99C435.446,1593.35 435.856,1592.35 436.305,1591.98C436.754,1591.61 437.982,1591.42 439.989,1591.42L451.557,1591.42C453.036,1591.42 453.974,1591.22 454.37,1590.83C454.766,1590.43 454.964,1589.49 454.964,1588.01L454.964,1581.83C454.964,1580.36 454.806,1579.5 454.489,1579.26C454.172,1579.02 453.274,1578.9 451.795,1578.9L399.104,1578.9C397.995,1578.9 397.256,1579.07 396.886,1579.42C396.516,1579.76 396.331,1580.49 396.331,1581.6L396.331,1588.33C396.331,1589.7 396.516,1590.56 396.886,1590.91C397.256,1591.25 398.127,1591.42 399.501,1591.42L409.959,1591.42C411.544,1591.42 412.468,1591.63 412.733,1592.06C412.997,1592.48 412.97,1593.35 412.653,1594.67L405.681,1627.08C405.417,1628.4 405.166,1629.27 404.928,1629.69C404.69,1630.11 403.7,1630.33 401.957,1630.33L352.99,1630.33C351.142,1630.33 350.072,1630.1 349.781,1629.65C349.491,1629.2 349.504,1628.27 349.821,1626.84L356.635,1595.07C356.952,1593.48 357.361,1592.48 357.863,1592.06C358.365,1591.63 359.567,1591.42 361.468,1591.42L372.086,1591.42C373.512,1591.42 374.436,1591.24 374.859,1590.87C375.281,1590.5 375.493,1589.57 375.493,1588.09L375.493,1582.23C375.493,1580.86 375.347,1579.96 375.057,1579.54C374.766,1579.11 373.961,1578.9 372.64,1578.9L319.554,1578.9C318.127,1578.9 317.243,1579.11 316.899,1579.54C316.556,1579.96 316.384,1580.91 316.384,1582.39L316.384,1588.49C316.384,1589.86 316.609,1590.69 317.058,1590.99C317.507,1591.28 318.418,1591.42 319.791,1591.42L331.439,1591.42C332.971,1591.42 333.895,1591.59 334.212,1591.94C334.529,1592.28 334.555,1593.11 334.291,1594.43L315.75,1681.03C315.381,1682.99 314.786,1684.18 313.968,1684.6C313.149,1685.02 311.604,1685.23 309.332,1685.23L298.794,1685.23C297.421,1685.23 296.457,1685.39 295.902,1685.71C295.348,1686.03 295.07,1686.92 295.07,1688.4L295.07,1694.27Z" style="fill-rule:nonzero;"/>
            </g>
            <g transform="matrix(2.58398,0,0,6.56426,-5389.36,-8984.77)">
                <path d="M486.975,1607.43C486.975,1603.73 488.031,1600.4 490.144,1597.44C492.257,1594.49 495.162,1592.13 498.86,1590.39C502.557,1588.65 506.783,1587.78 511.537,1587.78C517.876,1587.78 523.29,1589.02 527.78,1591.5C532.27,1593.98 535.624,1597.4 537.843,1601.76C540.061,1606.12 540.906,1611.1 540.378,1616.7C540.22,1618.07 540.286,1618.98 540.576,1619.43C540.867,1619.88 541.857,1620.1 543.547,1620.1L547.985,1620.1C549.675,1620.1 550.837,1620 551.471,1619.79C552.105,1619.58 552.554,1618.76 552.818,1617.33L560.266,1582.31C560.583,1580.78 560.57,1579.83 560.226,1579.46C559.883,1579.09 558.787,1578.9 556.938,1578.9L552.105,1578.9C550.837,1578.9 549.965,1579.05 549.49,1579.34C549.015,1579.63 548.486,1580.12 547.905,1580.8L543.31,1586.35C542.306,1587.78 541.54,1588.4 541.012,1588.21C540.484,1588.03 539.665,1587.41 538.556,1586.35C535.281,1583.08 531.279,1580.54 526.552,1578.74C521.824,1576.95 516.397,1576.05 510.269,1576.05C505.093,1576.05 499.824,1576.84 494.462,1578.43C489.101,1580.01 484.201,1582.38 479.764,1585.52C475.327,1588.66 471.749,1592.5 469.028,1597.05C466.308,1601.59 464.948,1606.85 464.948,1612.81C464.948,1618.15 466.03,1622.56 468.196,1626.05C470.362,1629.53 473.214,1632.41 476.753,1634.68C480.293,1636.95 484.188,1638.88 488.44,1640.47C492.693,1642.05 496.945,1643.54 501.197,1644.94C505.449,1646.34 509.345,1647.93 512.884,1649.7C516.423,1651.47 519.276,1653.68 521.441,1656.35C523.607,1659.02 524.69,1662.41 524.69,1666.54C524.69,1668.86 524.32,1671.33 523.581,1673.94C522.841,1676.56 521.468,1679.03 519.46,1681.35C517.453,1683.67 514.588,1685.56 510.864,1687.02C507.14,1688.47 502.293,1689.19 496.324,1689.19C492.151,1689.19 488.005,1688.72 483.884,1687.77C479.764,1686.82 476.093,1685.17 472.871,1682.82C469.649,1680.47 467.285,1677.26 465.78,1673.19C464.274,1669.12 464.023,1664 465.027,1657.82C465.08,1656.82 464.974,1656.09 464.71,1655.64C464.446,1655.19 463.759,1654.97 462.65,1654.97L456.47,1654.97C455.307,1654.97 454.502,1655.14 454.053,1655.48C453.604,1655.83 453.274,1656.47 453.063,1657.42L443.475,1696.33C443.211,1697.44 443.33,1698.08 443.832,1698.27C444.334,1698.45 445.271,1698.55 446.645,1698.55L452.27,1698.55C453.591,1698.55 454.555,1698.36 455.162,1697.99C455.77,1697.62 456.338,1697.09 456.866,1696.41L462.016,1689.67C462.967,1688.46 463.587,1687.85 463.878,1687.85C464.168,1687.85 464.736,1688.38 465.581,1689.43C468.381,1692.76 472.409,1695.45 477.665,1697.52C482.92,1699.58 489.774,1700.61 498.226,1700.61C508.104,1700.61 516.714,1698.97 524.056,1695.69C531.398,1692.42 537.09,1687.82 541.131,1681.91C545.172,1675.99 547.192,1669.07 547.192,1661.15C547.192,1655.28 546.109,1650.37 543.944,1646.41C541.778,1642.45 538.899,1639.19 535.307,1636.62C531.715,1634.06 527.78,1631.92 523.501,1630.21C519.223,1628.49 514.944,1626.94 510.665,1625.57C506.387,1624.2 502.452,1622.76 498.86,1621.25C495.268,1619.75 492.389,1617.91 490.223,1615.75C488.057,1613.58 486.975,1610.81 486.975,1607.43Z" style="fill-rule:nonzero;"/>
            </g>
        </g>
    </g>
</svg>
